<?xml version="1.0" encoding="utf-8"?>
<!-- Generator: Adobe Illustrator 25.4.8, SVG Export Plug-In . SVG Version: 6.00 Build 0)  -->
<svg version="1.1" id="Camada_1" xmlns="http://www.w3.org/2000/svg" xmlns:xlink="http://www.w3.org/1999/xlink" x="0px" y="0px"
	 viewBox="0 0 36 36" style="enable-background:new 0 0 36 36;" xml:space="preserve">
<style type="text/css">
	.st0{clip-path:url(#SVGID_00000169557411647296827340000006523341594645548713_);}
	.st1{fill:#F1CB40;}
</style>
<g id="Grupo_429_1_" transform="translate(0 0)">
	<g>
		<g>
			<defs>
				<rect id="SVGID_1_" x="11.9" y="6.8" width="14.2" height="22.5"/>
			</defs>
			<clipPath id="SVGID_00000119102247477080722780000009751271347723259325_">
				<use xlink:href="#SVGID_1_"  style="overflow:visible;"/>
			</clipPath>
			<g id="Grupo_428_1_" style="clip-path:url(#SVGID_00000119102247477080722780000009751271347723259325_);">
				<g id="Grupo_427_1_" transform="translate(0 0)">
					<path id="Caminho_760_1_" class="st1" d="M26.1,18c0-2-1.6-3.5-3.5-3.5S19,16,19,18s1.6,3.5,3.5,3.5S26.1,20,26.1,18 M19,10.3
						c0-2-1.6-3.5-3.5-3.5l0,0c-2,0-3.5,1.6-3.6,3.5c0,2,1.6,3.6,3.6,3.6l0,0C17.4,13.9,19,12.3,19,10.3 M11.9,25.7
						c0,2,1.6,3.5,3.6,3.5s3.5-1.6,3.5-3.5l0,0c0-2-1.6-3.5-3.5-3.5C13.5,22.1,11.9,23.7,11.9,25.7"/>
				</g>
			</g>
		</g>
	</g>
</g>
</svg>
